# xmcd CD database file
#
# Track frame offsets:
#	182
#	13675
#	27295
#	40195
#	56265
#	68755
#	85160
#	100642
#	113477
#	128370
#	140197
#	153702
#	168692
#	182417
#
# Disc length: 2627 seconds
#
# Revision: 1
# Processed by: cddbd v1.5.1PL0 Copyright (c) Steve Scherf et al.
# Submitted via: Feurio! 1.66 - http://www.feurio.com
#
DISCID=ac0a410e
DTITLE=Steirerbluat - Alles was ich Dir biet'n kann
DYEAR=1900
DGENRE=country
TTITLE0=Gibt es nicht, gibt es doch
TTITLE1=Alles, was I dir biet'n kann
TTITLE2=Spürst du's net
TTITLE3=Irgendwann
TTITLE4=Baby Baby
TTITLE5=Da steh I drauf
TTITLE6=Kleine Wolke
TTITLE7=Setz Di her
TTITLE8=Komm doch heut nach
TTITLE9=Weil I Di mog
TTITLE10=Wenn Freundschaft geht
TTITLE11=Hero of Love
TTITLE12=I will leb'n
TTITLE13=Flieg mit mir
EXTD=
EXTT0=
EXTT1=
EXTT2=
EXTT3=
EXTT4=
EXTT5=
EXTT6=
EXTT7=
EXTT8=
EXTT9=
EXTT10=
EXTT11=
EXTT12=
EXTT13=
PLAYORDER=
